<?xml version="1.0" encoding="UTF-8" standalone="no"?>
<!-- Created with Inkscape (http://www.inkscape.org/) -->

<svg
   xmlns:dc="http://purl.org/dc/elements/1.1/"
   xmlns:cc="http://creativecommons.org/ns#"
   xmlns:rdf="http://www.w3.org/1999/02/22-rdf-syntax-ns#"
   xmlns:svg="http://www.w3.org/2000/svg"
   xmlns="http://www.w3.org/2000/svg"
   xmlns:sodipodi="http://sodipodi.sourceforge.net/DTD/sodipodi-0.dtd"
   xmlns:inkscape="http://www.inkscape.org/namespaces/inkscape"
   width="150.10001mm"
   height="33.10001mm"
   viewBox="0 0 531.85045 117.2835"
   id="svg4160"
   version="1.1"
   inkscape:version="0.91 r13725"
   sodipodi:docname="Logo Tipo PB - RCiclo.svg">
  <defs
     id="defs4162" />
  <sodipodi:namedview
     id="base"
     pagecolor="#ffffff"
     bordercolor="#666666"
     borderopacity="1.0"
     inkscape:pageopacity="0.0"
     inkscape:pageshadow="2"
     inkscape:zoom="0.41494141"
     inkscape:cx="112.80466"
     inkscape:cy="634.31863"
     inkscape:document-units="px"
     inkscape:current-layer="layer1"
     showgrid="false"
     objecttolerance="20"
     inkscape:window-width="1024"
     inkscape:window-height="756"
     inkscape:window-x="-8"
     inkscape:window-y="-8"
     inkscape:window-maximized="1"
     showguides="true"
     inkscape:guide-bbox="true" />
  <metadata
     id="metadata4165">
    <rdf:RDF>
      <cc:Work
         rdf:about="">
        <dc:format>image/svg+xml</dc:format>
        <dc:type
           rdf:resource="http://purl.org/dc/dcmitype/StillImage" />
        <dc:title></dc:title>
      </cc:Work>
    </rdf:RDF>
  </metadata>
  <g
     inkscape:label="Camada 1"
     inkscape:groupmode="layer"
     id="layer1"
     transform="translate(0,-935.07893)">
    <g
       id="g4753"
       transform="translate(-88.409979,391.74634)">
      <path
         sodipodi:nodetypes="csccsccccccccccccccccccscsccccccccscccccccssccccccccccccccccccccccccccccscccscccccccc"
         inkscape:connector-curvature="0"
         id="path4207"
         d="m 551.99517,653.25325 c -18.55607,-3.6822 -32.67841,-17.8991 -36.58574,-36.8296 -1.26434,-6.1258 -1.37213,-17.4283 -0.22882,-23.9581 4.82146,-27.52882 28.05325,-45.48732 54.66068,-42.25258 10.63566,1.29357 18.82867,5.22602 26.37959,12.6618 5.47521,5.39158 8.6587,10.04778 10.98797,16.07048 3.05851,7.9108 3.51616,10.7479 3.47587,21.55 -0.0321,8.8276 -0.18929,10.4606 -1.46226,15.2547 -2.81753,10.6043 -9.32942,21.0247 -17.24882,27.5978 -4.10257,3.4019 -12.85382,7.934 -18.00999,9.3254 -4.58795,1.2357 -17.00859,1.5637 -21.96848,0.5801 z m 17.84939,-15.8102 c 9.07313,-2.719 16.76151,-11.7595 19.84763,-23.3342 1.62436,-6.0908 1.61777,-17.8375 -0.011,-24.0476 -3.54942,-13.5182 -12.96574,-22.98987 -24.26408,-24.40843 -8.24795,-1.03575 -14.45437,1.17713 -20.58198,7.33883 -4.429,4.4524 -7.23303,9.3613 -9.13655,15.9956 -1.64702,5.7391 -1.8022,18.7891 -0.29006,24.4143 1.81812,6.7638 4.95525,12.3817 9.39527,16.8215 7.24273,7.2426 16.2811,9.8493 25.04271,7.22 z m -307.28163,15.4656 c -17.3835,-2.3726 -29.19571,-9.6906 -37.06189,-22.9585 -5.07896,-8.5659 -6.86661,-16.4098 -6.45502,-28.3214 0.32425,-9.3833 1.60881,-14.8447 5.14857,-21.8864 7.14897,-14.22273 18.02779,-23.19768 32.87632,-27.12346 4.91195,-1.29868 6.53631,-1.45735 15.37783,-1.50225 6.36272,-0.032 11.20678,0.21703 13.59279,0.69883 3.63407,0.73406 3.70716,0.78275 3.69563,2.47142 -0.0135,2.33242 -1.91289,13.99046 -2.34745,14.42546 -0.19102,0.1908 -2.02459,-0.088 -4.07428,-0.6168 -5.41134,-1.39948 -16.46665,-1.72173 -21.16424,-0.6166 -8.82478,2.0766 -14.61574,6.797 -18.7745,15.3046 -3.29316,6.7377 -4.39176,12.3188 -4.02188,20.4299 0.20957,4.5932 0.63649,7.1379 1.75576,10.4629 4.04683,12.0222 13.22712,20.7316 24.33805,23.0865 6.58549,1.3951 16.70122,0.9129 25.04745,-1.1893 1.77027,-0.4486 3.33825,-0.6947 3.48443,-0.5481 0.51227,0.5129 -0.53361,14.6157 -1.14378,15.4207 -1.50932,1.999 -21.66544,3.6378 -30.27379,2.4625 z m 131.26068,0 c -17.38371,-2.3726 -29.19589,-9.6906 -37.06213,-22.9585 -5.07888,-8.5659 -6.86642,-16.4098 -6.45484,-28.3214 0.32424,-9.3833 1.60878,-14.8447 5.14848,-21.8864 7.14924,-14.22273 18.02782,-23.19768 32.87675,-27.12346 4.91156,-1.29868 6.53578,-1.45735 15.37715,-1.50225 6.36289,-0.032 11.20713,0.21703 13.59307,0.69883 3.63386,0.73406 3.70709,0.78275 3.69553,2.47142 -0.015,2.33242 -1.9127,13.99046 -2.34735,14.42546 -0.19113,0.1908 -2.02458,-0.088 -4.07419,-0.6168 -5.4112,-1.39948 -16.46687,-1.72173 -21.16441,-0.6166 -8.82468,2.0766 -14.61563,6.797 -18.77438,15.3046 -3.29333,6.7377 -4.39176,12.3188 -4.02193,20.4299 0.2095,4.5932 0.63659,7.1379 1.75572,10.4629 4.0469,12.0222 13.22737,20.7316 24.33811,23.0865 6.58547,1.3951 16.70126,0.9129 25.04736,-1.1893 1.77027,-0.4486 3.33845,-0.6947 3.48447,-0.5481 0.51246,0.5129 -0.53354,14.6157 -1.14367,15.4207 -1.50942,1.999 -21.66565,3.6378 -30.27374,2.4625 z m -82.33115,-11.3599 c 0.45977,-12.0494 0.59502,-57.7784 0.22456,-75.92795 l -0.27451,-13.45572 9.88569,0 9.8857,0 -0.0481,5.76683 c -0.26746,32.41744 -0.22323,73.27214 0.0892,82.24434 l 0.38751,11.12 -10.26106,0 -10.26175,0 0.37201,-9.7475 z m 131.20189,0.8276 c 0.46205,-12.0622 0.62098,-53.4661 0.28328,-73.7351 l -0.27456,-16.47617 9.88563,0 9.88571,0 -0.17504,8.78763 c -0.54739,27.47904 -1.0429,75.31294 -0.78396,75.73694 0.30381,0.4958 26.69271,0.1 38.18381,-0.5814 l 5.91996,-0.348 -0.15328,7.6323 -0.1529,7.6302 -31.48046,0.1408 -31.47998,0.1401 z"
         style="fill:#000000" />
      <path
         sodipodi:nodetypes="ccsccssccssscssscsscscccccc"
         inkscape:connector-curvature="0"
         id="path4207-1"
         d="m 103.26547,653.02525 c -0.12851,-0.12851 -0.11358,-102.08974 0.014,-102.16943 0.0592,-0.0347 14.35905,-0.076 31.77992,-0.0878 31.0793,-0.0208 31.7074,-0.0161 33.43838,0.24977 6.71436,1.03299 12.7008,3.40954 18.16114,7.20974 4.13915,2.881 8.30259,7.12603 11.13998,11.35867 8.67103,12.93545 10.00129,29.67275 3.4915,43.92999 -3.09698,6.7829 -8.18308,13.04348 -14.00725,17.24227 -0.68533,0.49408 -1.28188,0.98614 -1.32566,1.09346 -0.0535,0.1314 3.31109,3.5869 10.28258,10.56075 5.69914,5.70076 10.36212,10.41049 10.36212,10.46606 0,0.0535 -12.41232,0.0858 -27.58318,0.0676 l -27.58303,-0.0336 -0.0332,-27.65095 c -0.0179,-15.2078 0.0122,-27.65076 0.07,-27.65076 0.0567,0 1.71667,1.61538 3.68926,3.58976 3.98251,3.98619 3.93934,3.95571 6.0765,4.2682 3.60894,0.52779 7.34734,-1.59094 9.33836,-5.29219 1.23763,-2.30079 1.66492,-5.27998 1.12779,-7.86623 -0.8438,-4.06331 -3.65173,-7.1612 -7.27125,-8.02245 -0.85558,-0.20347 -2.22845,-0.22153 -14.28128,-0.18615 l -13.33467,0.0381 -0.0687,34.45322 -0.0687,34.4536 -16.66216,0.0339 c -9.16422,0.0184 -16.70289,-0.01 -16.75282,-0.0557 z"
         style="fill:#000000" />
    </g>
  </g>
</svg>
